<svg width="22" height="22" viewBox="0 0 22 22" fill="none" xmlns="http://www.w3.org/2000/svg">
<path d="M2.0625 18.5625C0.924917 18.5625 0 17.6376 0 16.5V5.5C0 5.00775 0.17875 4.52925 0.502333 4.15433C0.51425 4.13967 0.53075 4.12042 0.549083 4.103C0.939583 3.68042 1.4905 3.4375 2.0625 3.4375H19.9375C20.5104 3.4375 21.0613 3.68042 21.4518 4.10392C21.4683 4.12042 21.4839 4.13783 21.4986 4.15617C21.8203 4.5265 22 5.00592 22 5.5V16.5C22 17.6376 21.0751 18.5625 19.9375 18.5625H2.0625ZM1.375 16.5C1.375 16.8795 1.683 17.1875 2.0625 17.1875H19.9375C20.317 17.1875 20.625 16.8795 20.625 16.5V5.67142L15.477 9.22167L18.3416 11.8699C18.6203 12.1275 18.6368 12.5629 18.3801 12.8416C18.2499 12.9818 18.0657 13.0625 17.875 13.0625C17.7017 13.0625 17.5358 12.9974 17.4084 12.8801L14.3165 10.0219L12.6436 11.176C12.1614 11.5097 11.5931 11.6857 11 11.6857C10.4078 11.6857 9.8395 11.5097 9.35642 11.176L7.6835 10.0228L4.59158 12.881C4.46417 12.9974 4.29825 13.0625 4.125 13.0625C3.93433 13.0625 3.75008 12.9818 3.61992 12.8425C3.36233 12.5638 3.37975 12.1275 3.6575 11.8708L6.52208 9.22258L1.375 5.67142V16.5ZM10.1374 10.0439C10.3904 10.219 10.6883 10.3107 11 10.3107C11.3117 10.3107 11.6096 10.2181 11.8626 10.0439L19.4489 4.8125H2.55108L10.1374 10.0439Z" fill="white"/>
</svg>
