<svg width="22" height="22" viewBox="0 0 22 22" fill="none" xmlns="http://www.w3.org/2000/svg">
<path d="M11 10.3125C9.10433 10.3125 7.5625 8.77067 7.5625 6.875C7.5625 4.97933 9.10433 3.4375 11 3.4375C12.8957 3.4375 14.4375 4.97933 14.4375 6.875C14.4375 8.77067 12.8957 10.3125 11 10.3125ZM11 4.8125C9.86242 4.8125 8.9375 5.73742 8.9375 6.875C8.9375 8.01258 9.86242 8.9375 11 8.9375C12.1376 8.9375 13.0625 8.01258 13.0625 6.875C13.0625 5.73742 12.1376 4.8125 11 4.8125Z" fill="white"/>
<path d="M10.9982 19.0126C10.7782 19.0126 10.5673 18.9429 10.3886 18.8118C10.3024 18.7486 10.2282 18.6734 10.1658 18.5891C4.7135 11.0797 4.125 7.89525 4.125 6.875C4.125 3.08458 7.20958 0 11 0C14.7904 0 17.875 3.08458 17.875 6.875C17.875 10.0238 13.2523 16.6357 11.8351 18.5873C11.671 18.8118 11.4299 18.9585 11.1567 18.9998C11.1045 19.0089 11.0513 19.0126 10.9982 19.0126ZM11 1.375C7.96767 1.375 5.5 3.84267 5.5 6.875C5.5 8.97508 8.40033 13.7628 11 17.3938C13.5988 13.7628 16.5 8.97508 16.5 6.875C16.5 3.84267 14.0323 1.375 11 1.375Z" fill="white"/>
<path d="M11 22C8.47367 22 5.96292 21.7067 4.11217 21.1943C1.87183 20.5746 0.6875 19.6643 0.6875 18.5625C0.6875 16.9098 3.23125 16.0563 5.36525 15.631C5.40742 15.6218 5.45508 15.6173 5.50183 15.6173C5.82725 15.6173 6.10958 15.8501 6.17375 16.1709C6.2095 16.3515 6.17375 16.5348 6.07108 16.687C5.96933 16.8401 5.8135 16.9437 5.63383 16.9794C2.96175 17.512 2.0625 18.2893 2.0625 18.5625C2.0625 18.7238 2.48875 19.305 4.38258 19.8458C6.14075 20.3482 8.49017 20.625 11 20.625C13.5098 20.625 15.8592 20.3482 17.6174 19.8458C19.5112 19.305 19.9375 18.7238 19.9375 18.5625C19.9375 18.2884 19.0337 17.5083 16.3469 16.9767C16.1663 16.9409 16.0114 16.8373 15.9087 16.6843C15.8061 16.5312 15.7703 16.3488 15.8052 16.1682C15.8684 15.8473 16.1526 15.6145 16.4798 15.6145C16.5238 15.6145 16.5687 15.6191 16.6137 15.6283C18.7568 16.0527 21.3116 16.9061 21.3116 18.5634C21.3116 19.6653 20.1272 20.5755 17.8869 21.1952C16.0371 21.7067 13.5263 22 11 22Z" fill="white"/>
</svg>
