<svg width="235" height="46" viewBox="0 0 235 46" fill="none" xmlns="http://www.w3.org/2000/svg">
<path d="M11.2948 34.4924H22.9372L28.5803 23.0154H5.6561L11.2948 34.4924Z" fill="#AABCD6"/>
<path d="M5.64741 0L0 11.5077L5.6561 23.0153L17.1942 0H5.64741Z" fill="#ABB7C9"/>
<path d="M22.9806 11.5077L22.972 11.5208L28.6541 22.8577L34.232 11.5077L28.5846 0H17.1942L22.9633 11.5077H22.9806Z" fill="#9FC7E3"/>
<path d="M28.6541 22.8578L28.5803 23.0154H28.7367L28.6541 22.8578Z" fill="#838383"/>
<path d="M22.9633 11.5077L22.9717 11.5202L22.9802 11.5077H22.9633Z" fill="#838383"/>
<path d="M11.4469 11.5077H22.9632L17.1942 0L11.4251 11.5077H11.4469Z" fill="#7499BD"/>
<path d="M5.6561 23.0153H17.2116L11.4208 11.5164L5.6561 23.0153Z" fill="#8095B5"/>
<path d="M11.4164 11.5077L17.2116 23.0153L22.9719 11.5208L22.9632 11.5077H11.4164Z" fill="#6083AC"/>
<path d="M22.9719 11.5209L22.3942 12.6721L17.2116 23.0154H28.5803L28.6541 22.8578L22.9719 11.5209Z" fill="#7099C7"/>
<path d="M45.8787 11.5077H34.232L28.5933 22.9847H51.5175L45.8787 11.5077Z" fill="#89B7DB"/>
<path d="M51.5261 45.9999L57.1735 34.4923L51.5174 22.9846L39.9793 45.9999H51.5261Z" fill="#F1F8ED"/>
<path d="M34.1929 34.4923L34.2016 34.4792L28.5151 23.1422L22.9372 34.4923L28.5846 46H39.9794L34.2103 34.4923H34.1929Z" fill="#9FC7E3"/>
<path d="M28.5151 23.1422L28.5933 22.9846H28.4369L28.5151 23.1422Z" fill="#838383"/>
<path d="M34.2098 34.4918L34.2014 34.4792L34.1929 34.4918H34.2098Z" fill="#838383"/>
<path d="M45.7267 34.4923H34.2103L39.9793 46L45.7441 34.4923H45.7267Z" fill="#BEDBDF"/>
<path d="M51.5175 22.9846H39.962L45.7527 34.4835L51.5175 22.9846Z" fill="#B1D1DB"/>
<path d="M45.757 34.4923L39.9619 22.9846L34.2016 34.4791L34.2103 34.4923H45.757Z" fill="#97C2D4"/>
<path d="M34.2016 34.4791L34.7794 33.3279L39.9576 22.9846H39.962H28.5933L28.5151 23.1422L34.2016 34.4791Z" fill="#569BCD"/>
<path d="M66.0156 12.2999V25.5628H64.6993V12.2999H66.0156Z" fill="white"/>
<path d="M76.8456 16.1606C77.6232 16.9266 78.0142 18.0384 78.0142 19.4917V25.5628H76.7153V19.6449C76.7153 18.5199 76.4373 17.6576 75.8769 17.0623C75.3165 16.467 74.5562 16.1694 73.5875 16.1694C72.597 16.1694 71.802 16.4845 71.2156 17.1192C70.6291 17.7539 70.3294 18.6819 70.3294 19.9075V25.5628H69.0131V15.202H70.3294V16.966C70.6552 16.3313 71.1287 15.8498 71.7412 15.5128C72.3538 15.1757 73.0532 15.0094 73.8308 15.0094C75.0602 15.0138 76.068 15.3946 76.8456 16.1606Z" fill="white"/>
<path d="M82.6451 16.3226V22.7527C82.6451 23.3874 82.7667 23.8251 83.0013 24.0614C83.2402 24.3022 83.6616 24.4248 84.2655 24.4248H85.4688V25.5628H84.0569C83.1273 25.5628 82.4366 25.344 81.9848 24.9062C81.533 24.4685 81.3071 23.7507 81.3071 22.7527V16.3226H79.8735V15.202H81.3071V12.6019H82.6451V15.202H85.4688V16.3226H82.6451Z" fill="white"/>
<path d="M96.9027 20.8966H88.3707C88.4098 21.6802 88.5966 22.3499 88.9355 22.9102C89.2743 23.4661 89.7218 23.8863 90.2735 24.1708C90.8252 24.4553 91.429 24.5954 92.0806 24.5954C92.9364 24.5954 93.6532 24.3853 94.2353 23.9694C94.8175 23.5492 95.2041 22.989 95.3952 22.2798H96.7897C96.5377 23.291 96.0034 24.1183 95.178 24.7573C94.357 25.3964 93.3231 25.7159 92.0806 25.7159C91.1119 25.7159 90.2474 25.4971 89.4828 25.0594C88.7183 24.626 88.1188 24.0045 87.6843 23.1991C87.2499 22.398 87.0327 21.4569 87.0327 20.3801C87.0327 19.3033 87.2456 18.3622 87.6713 17.5525C88.097 16.7427 88.6965 16.1255 89.4611 15.6922C90.2257 15.2632 91.0989 15.0487 92.0806 15.0487C93.0581 15.0487 93.9182 15.2632 94.6524 15.6922C95.3865 16.1211 95.9513 16.7033 96.3466 17.4299C96.7419 18.1565 96.9418 18.9619 96.9418 19.8505C96.9418 20.3057 96.9287 20.6559 96.9027 20.8966ZM95.1433 17.8414C94.8218 17.2986 94.3874 16.8871 93.8357 16.607C93.284 16.3268 92.6801 16.1912 92.0285 16.1912C91.0511 16.1912 90.2126 16.5063 89.5263 17.141C88.8355 17.7757 88.4533 18.6643 88.3794 19.8155H95.6124C95.6168 19.0407 95.4604 18.3841 95.1433 17.8414Z" fill="white"/>
<path d="M106.186 15.736C106.903 16.1912 107.416 16.769 107.728 17.4606V15.202H109.049V25.8298C109.049 26.7797 108.845 27.6201 108.436 28.3511C108.028 29.0865 107.459 29.6511 106.733 30.0495C106.004 30.4478 105.178 30.6491 104.249 30.6491C102.932 30.6491 101.833 30.334 100.96 29.6993C100.087 29.0646 99.5439 28.2067 99.331 27.1167H100.63C100.856 27.839 101.286 28.4124 101.92 28.8414C102.554 29.2703 103.328 29.4848 104.244 29.4848C104.909 29.4848 105.504 29.3404 106.034 29.0558C106.56 28.7713 106.977 28.3511 107.277 27.7952C107.576 27.2393 107.728 26.5827 107.728 25.8211V23.2604C107.402 23.9695 106.886 24.5561 106.173 25.0157C105.465 25.4753 104.627 25.7073 103.658 25.7073C102.715 25.7073 101.872 25.4884 101.125 25.0419C100.378 24.5998 99.7959 23.9739 99.3745 23.1641C98.9531 22.3543 98.7446 21.4176 98.7446 20.354C98.7446 19.2903 98.9531 18.358 99.3745 17.5569C99.7959 16.7515 100.378 16.1343 101.125 15.6966C101.872 15.2633 102.715 15.04 103.658 15.04C104.631 15.0488 105.469 15.2764 106.186 15.736ZM107.224 18.1829C106.886 17.5482 106.425 17.0623 105.839 16.7209C105.256 16.3795 104.609 16.2088 103.905 16.2088C103.176 16.2088 102.524 16.3751 101.946 16.7034C101.368 17.0317 100.912 17.5088 100.582 18.1347C100.248 18.7607 100.083 19.5048 100.083 20.3627C100.083 21.2119 100.248 21.9516 100.582 22.5907C100.917 23.2298 101.368 23.7157 101.946 24.0527C102.524 24.3897 103.176 24.5561 103.905 24.5561C104.609 24.5561 105.252 24.3854 105.839 24.0439C106.421 23.7025 106.881 23.2167 107.224 22.582C107.563 21.9473 107.733 21.2163 107.733 20.3802C107.733 19.5486 107.563 18.8132 107.224 18.1829Z" fill="white"/>
<path d="M114.709 15.5434C115.305 15.1889 116.039 15.0138 116.903 15.0138V16.397H116.547C115.591 16.397 114.827 16.6552 114.249 17.1761C113.671 17.697 113.38 18.5593 113.38 19.7762V25.5629H112.064V15.202H113.38V17.0448C113.671 16.397 114.114 15.898 114.709 15.5434Z" fill="white"/>
<path d="M118.91 17.5656C119.332 16.7602 119.914 16.143 120.661 15.7053C121.408 15.2719 122.251 15.0487 123.194 15.0487C124.171 15.0487 125.018 15.2763 125.726 15.7315C126.434 16.1868 126.947 16.7689 127.26 17.4781V15.2019H128.58V25.5627H127.26V23.2647C126.934 23.9738 126.417 24.5604 125.704 25.02C124.996 25.4796 124.149 25.7116 123.172 25.7116C122.242 25.7116 121.404 25.4927 120.657 25.0462C119.909 24.6041 119.327 23.9782 118.906 23.1684C118.484 22.3586 118.276 21.4219 118.276 20.3582C118.276 19.2946 118.489 18.3666 118.91 17.5656ZM126.751 18.1828C126.413 17.5481 125.952 17.0622 125.366 16.7208C124.784 16.3794 124.136 16.2087 123.432 16.2087C122.703 16.2087 122.051 16.375 121.473 16.7033C120.895 17.0316 120.439 17.5087 120.109 18.1346C119.775 18.7606 119.61 19.5047 119.61 20.3626C119.61 21.2118 119.775 21.9516 120.109 22.5906C120.444 23.2297 120.895 23.7156 121.473 24.0526C122.051 24.3897 122.703 24.556 123.432 24.556C124.136 24.556 124.779 24.3853 125.366 24.0439C125.948 23.7024 126.408 23.2166 126.751 22.5819C127.09 21.9472 127.26 21.2162 127.26 20.3801C127.26 19.5485 127.09 18.8131 126.751 18.1828Z" fill="white"/>
<path d="M133.307 16.3226V22.7527C133.307 23.3874 133.428 23.8251 133.663 24.0614C133.902 24.3022 134.323 24.4248 134.927 24.4248H136.13V25.5628H134.719C133.789 25.5628 133.098 25.344 132.646 24.9062C132.195 24.4685 131.969 23.7507 131.969 22.7527V16.3226H130.535V15.202H131.969V12.6019H133.307V15.202H136.13V16.3226H133.307Z" fill="white"/>
<path d="M147.564 20.8966H139.032C139.071 21.6802 139.258 22.3499 139.597 22.9102C139.936 23.4661 140.383 23.8863 140.935 24.1708C141.487 24.4553 142.091 24.5954 142.742 24.5954C143.598 24.5954 144.315 24.3853 144.897 23.9694C145.479 23.5492 145.866 22.989 146.057 22.2798H147.451C147.199 23.291 146.665 24.1183 145.84 24.7573C145.019 25.3964 143.985 25.7159 142.742 25.7159C141.774 25.7159 140.909 25.4971 140.144 25.0594C139.38 24.626 138.78 24.0045 138.346 23.1991C137.912 22.398 137.694 21.4569 137.694 20.3801C137.694 19.3033 137.907 18.3622 138.333 17.5525C138.759 16.7427 139.358 16.1255 140.123 15.6922C140.887 15.2632 141.76 15.0487 142.742 15.0487C143.724 15.0487 144.58 15.2632 145.314 15.6922C146.048 16.1211 146.613 16.7033 147.008 17.4299C147.404 18.1565 147.603 18.9619 147.603 19.8505C147.603 20.3057 147.59 20.6559 147.564 20.8966ZM145.805 17.8414C145.483 17.2986 145.049 16.8871 144.497 16.607C143.946 16.3268 143.342 16.1912 142.69 16.1912C141.713 16.1912 140.874 16.5063 140.184 17.141C139.493 17.7757 139.111 18.6643 139.037 19.8155H146.27C146.278 19.0407 146.122 18.3841 145.805 17.8414Z" fill="white"/>
<path d="M150.049 17.5657C150.475 16.7603 151.061 16.1431 151.809 15.7054C152.556 15.272 153.398 15.0488 154.341 15.0488C155.245 15.0488 156.061 15.272 156.787 15.7141C157.517 16.1562 158.051 16.734 158.39 17.4387V11.5208H159.711V25.5628H158.39V23.2473C158.077 23.9695 157.56 24.5604 156.848 25.02C156.135 25.4796 155.293 25.7116 154.324 25.7116C153.381 25.7116 152.538 25.4928 151.791 25.0463C151.044 24.6042 150.462 23.9783 150.04 23.1685C149.619 22.3587 149.411 21.422 149.411 20.3583C149.411 19.2947 149.623 18.3667 150.049 17.5657ZM157.886 18.1829C157.547 17.5482 157.087 17.0623 156.5 16.7209C155.918 16.3794 155.271 16.2087 154.567 16.2087C153.837 16.2087 153.186 16.3751 152.608 16.7034C152.03 17.0316 151.574 17.5088 151.244 18.1347C150.909 18.7606 150.744 19.5048 150.744 20.3627C150.744 21.2119 150.909 21.9516 151.244 22.5907C151.578 23.2298 152.03 23.7156 152.608 24.0527C153.186 24.3897 153.837 24.5561 154.567 24.5561C155.271 24.5561 155.914 24.3853 156.5 24.0439C157.082 23.7025 157.543 23.2166 157.886 22.5819C158.225 21.9472 158.394 21.2163 158.394 20.3802C158.394 19.5485 158.225 18.8132 157.886 18.1829Z" fill="white"/>
<path d="M169.203 13.3811V18.3317H174.194V19.4348H169.203V24.4642H174.759V25.5673H167.886V12.2781H174.759V13.3811H169.203Z" fill="white"/>
<path d="M185.193 16.1606C185.971 16.9266 186.362 18.0384 186.362 19.4917V25.5628H185.063V19.6449C185.063 18.5199 184.785 17.6576 184.225 17.0623C183.664 16.467 182.904 16.1694 181.935 16.1694C180.945 16.1694 180.154 16.4845 179.563 17.1192C178.973 17.7539 178.677 18.6819 178.677 19.9075V25.5628H177.361V15.202H178.677V16.966C179.003 16.3313 179.477 15.8498 180.089 15.5128C180.702 15.1757 181.401 15.0094 182.179 15.0094C183.408 15.0138 184.416 15.3946 185.193 16.1606Z" fill="white"/>
<path d="M198.543 20.8966H190.015C190.055 21.6802 190.241 22.3499 190.58 22.9102C190.919 23.4661 191.367 23.8863 191.918 24.1708C192.47 24.4553 193.074 24.5954 193.725 24.5954C194.581 24.5954 195.298 24.3853 195.88 23.9694C196.462 23.5492 196.849 22.989 197.04 22.2798H198.434C198.183 23.291 197.648 24.1183 196.823 24.7573C196.002 25.3964 194.968 25.7159 193.725 25.7159C192.757 25.7159 191.892 25.4971 191.128 25.0594C190.363 24.626 189.764 24.0045 189.329 23.1991C188.895 22.398 188.677 21.4569 188.677 20.3801C188.677 19.3033 188.89 18.3622 189.316 17.5525C189.742 16.7427 190.341 16.1255 191.106 15.6922C191.87 15.2632 192.744 15.0487 193.725 15.0487C194.707 15.0487 195.563 15.2632 196.297 15.6922C197.031 16.1211 197.596 16.7033 197.991 17.4299C198.387 18.1565 198.587 18.9619 198.587 19.8505C198.582 20.3057 198.569 20.6559 198.543 20.8966ZM196.784 17.8414C196.462 17.2986 196.028 16.8871 195.476 16.607C194.924 16.3268 194.321 16.1912 193.669 16.1912C192.691 16.1912 191.853 16.5063 191.162 17.141C190.472 17.7757 190.089 18.6643 190.015 19.8155H197.249C197.257 19.0407 197.105 18.3841 196.784 17.8414Z" fill="white"/>
<path d="M203.639 15.5434C204.234 15.1889 204.968 15.0138 205.833 15.0138V16.397H205.476C204.521 16.397 203.756 16.6552 203.178 17.1761C202.601 17.697 202.309 18.5593 202.309 19.7762V25.5629H200.993V15.202H202.309V17.0448C202.601 16.397 203.044 15.898 203.639 15.5434Z" fill="white"/>
<path d="M214.647 15.736C215.364 16.1912 215.876 16.769 216.189 17.4606V15.202H217.51V25.8298C217.51 26.7797 217.305 27.6201 216.897 28.3511C216.489 29.0865 215.92 29.6511 215.194 30.0495C214.464 30.4478 213.639 30.6491 212.709 30.6491C211.393 30.6491 210.294 30.334 209.421 29.6993C208.548 29.0646 208.005 28.2067 207.792 27.1167H209.091C209.317 27.839 209.747 28.4124 210.381 28.8414C211.015 29.2703 211.788 29.4848 212.705 29.4848C213.37 29.4848 213.965 29.3404 214.495 29.0558C215.02 28.7713 215.438 28.3511 215.737 27.7952C216.037 27.2393 216.189 26.5827 216.189 25.8211V23.2604C215.863 23.9695 215.346 24.5561 214.634 25.0157C213.926 25.4753 213.087 25.7073 212.119 25.7073C211.176 25.7073 210.333 25.4884 209.586 25.0419C208.839 24.5998 208.257 23.9739 207.835 23.1641C207.414 22.3543 207.205 21.4176 207.205 20.354C207.205 19.2903 207.414 18.358 207.835 17.5569C208.257 16.7515 208.839 16.1343 209.586 15.6966C210.333 15.2633 211.176 15.04 212.119 15.04C213.092 15.0488 213.934 15.2764 214.647 15.736ZM215.685 18.1829C215.346 17.5482 214.886 17.0623 214.299 16.7209C213.717 16.3795 213.07 16.2088 212.366 16.2088C211.636 16.2088 210.985 16.3751 210.407 16.7034C209.829 17.0317 209.373 17.5088 209.043 18.1347C208.708 18.7607 208.543 19.5048 208.543 20.3627C208.543 21.2119 208.708 21.9516 209.043 22.5907C209.377 23.2298 209.829 23.7157 210.407 24.0527C210.985 24.3897 211.636 24.5561 212.366 24.5561C213.07 24.5561 213.713 24.3854 214.299 24.0439C214.881 23.7025 215.342 23.2167 215.685 22.582C216.024 21.9473 216.193 21.2163 216.193 20.3802C216.193 19.5486 216.024 18.8132 215.685 18.1829Z" fill="white"/>
<path d="M229 15.2019L222.896 30.4389H221.524L223.522 25.5058L219.304 15.2019H220.755L224.256 24.0439L227.645 15.2019H229Z" fill="white"/>
<path d="M77.5624 32.7546V45.8512H76.2461V35.3941L71.6109 45.8512H70.6508L66.0156 35.4335V45.8512H64.6993V32.7546H66.0938L71.1244 44.1047L76.1549 32.7546H77.5624Z" fill="white"/>
<path d="M80.5816 37.8497C81.003 37.0442 81.5851 36.4271 82.3323 35.9893C83.0795 35.556 83.9266 35.3328 84.865 35.3328C85.8424 35.3328 86.6895 35.5604 87.3976 36.0156C88.1057 36.4708 88.6183 37.053 88.9311 37.7621V35.486H90.2474V45.8468H88.9311V43.5531C88.6053 44.2622 88.0883 44.8488 87.3759 45.3084C86.6678 45.768 85.825 46 84.8433 46C83.9136 46 83.0752 45.7811 82.328 45.3347C81.5808 44.8926 80.9987 44.2666 80.5773 43.4568C80.1559 42.6471 79.9474 41.7103 79.9474 40.6467C79.9474 39.583 80.1603 38.6551 80.5816 37.8497ZM88.4272 38.4668C88.0883 37.8321 87.6279 37.3463 87.0414 37.0049C86.4593 36.6634 85.812 36.4927 85.1126 36.4927C84.3828 36.4927 83.7312 36.6591 83.1534 36.9873C82.5756 37.3156 82.1195 37.7927 81.7893 38.4187C81.4548 39.0446 81.2897 39.7888 81.2897 40.6467C81.2897 41.4959 81.4548 42.2356 81.7893 42.8747C82.1238 43.5137 82.5756 43.9996 83.1534 44.3367C83.7312 44.6737 84.3828 44.84 85.1126 44.84C85.8164 44.84 86.4593 44.6693 87.0414 44.3279C87.6235 43.9865 88.0883 43.5006 88.4272 42.8659C88.766 42.2312 88.9355 41.5002 88.9355 40.6642C88.9355 39.8325 88.766 39.1015 88.4272 38.4668Z" fill="white"/>
<path d="M94.9825 36.6066V43.0367C94.9825 43.6714 95.1041 44.1091 95.3431 44.3455C95.582 44.5862 96.0034 44.7088 96.6029 44.7088H97.8062V45.8469H96.3944C95.4647 45.8469 94.774 45.628 94.3222 45.1903C93.8704 44.7526 93.6445 44.0347 93.6445 43.0367V36.6066H92.2109V35.486H93.6445V32.886H94.9825V35.486H97.8062V36.6066H94.9825Z" fill="white"/>
<path d="M109.24 41.1807H100.708C100.747 41.9642 100.934 42.6339 101.273 43.1942C101.612 43.7501 102.059 44.1703 102.611 44.4548C103.163 44.7394 103.766 44.8794 104.418 44.8794C105.274 44.8794 105.991 44.6693 106.573 44.2535C107.155 43.8333 107.541 43.273 107.733 42.5639H109.127C108.875 43.575 108.341 44.4023 107.515 45.0414C106.694 45.6805 105.66 46 104.418 46C103.449 46 102.585 45.7811 101.82 45.3434C101.056 44.9101 100.456 44.2885 100.022 43.4831C99.5873 42.6821 99.3701 41.741 99.3701 40.6642C99.3701 39.5874 99.583 38.6463 100.009 37.8365C100.434 37.0267 101.03 36.4096 101.799 35.9762C102.563 35.5472 103.436 35.3328 104.418 35.3328C105.4 35.3328 106.256 35.5472 106.99 35.9762C107.724 36.4052 108.289 36.9873 108.684 37.714C109.079 38.4406 109.279 39.246 109.279 40.1346C109.275 40.5898 109.262 40.94 109.24 41.1807ZM107.476 38.1254C107.155 37.5826 106.72 37.1712 106.169 36.891C105.617 36.6109 105.013 36.4752 104.362 36.4752C103.384 36.4752 102.546 36.7904 101.859 37.4251C101.169 38.0598 100.786 38.9483 100.708 40.0995H107.941C107.95 39.3291 107.798 38.6682 107.476 38.1254Z" fill="white"/>
<path d="M114.331 35.8274C114.927 35.4728 115.661 35.2977 116.525 35.2977V36.6809H116.169C115.213 36.6809 114.449 36.9392 113.871 37.4601C113.293 37.981 113.006 38.8433 113.006 40.0601V45.8468H111.69V35.4859H113.006V37.3288C113.293 36.6853 113.736 36.1819 114.331 35.8274Z" fill="white"/>
<path d="M118.484 33.2492C118.298 33.061 118.202 32.8247 118.202 32.5445C118.202 32.2644 118.298 32.0368 118.484 31.8529C118.671 31.6691 118.897 31.5771 119.162 31.5771C119.427 31.5771 119.653 31.6691 119.84 31.8529C120.027 32.0368 120.122 32.2687 120.122 32.5445C120.122 32.8247 120.027 33.0566 119.84 33.2492C119.653 33.4375 119.427 33.5338 119.162 33.5338C118.897 33.5338 118.676 33.4375 118.484 33.2492ZM119.822 35.486V45.8468H118.506V35.486H119.822Z" fill="white"/>
<path d="M122.846 37.8497C123.267 37.0442 123.849 36.4271 124.597 35.9893C125.344 35.556 126.191 35.3328 127.129 35.3328C128.107 35.3328 128.954 35.5604 129.662 36.0156C130.37 36.4708 130.883 37.053 131.195 37.7621V35.486H132.512V45.8468H131.195V43.5531C130.87 44.2622 130.353 44.8488 129.64 45.3084C128.932 45.768 128.089 46 127.108 46C126.178 46 125.34 45.7811 124.592 45.3347C123.845 44.8926 123.263 44.2666 122.842 43.4568C122.42 42.6471 122.212 41.7103 122.212 40.6467C122.212 39.583 122.425 38.6551 122.846 37.8497ZM130.687 38.4668C130.348 37.8321 129.888 37.3463 129.301 37.0049C128.719 36.6634 128.072 36.4927 127.373 36.4927C126.643 36.4927 125.991 36.6591 125.413 36.9873C124.836 37.3156 124.379 37.7927 124.049 38.4187C123.715 39.0446 123.55 39.7888 123.55 40.6467C123.55 41.4959 123.715 42.2356 124.049 42.8747C124.384 43.5137 124.836 43.9996 125.413 44.3367C125.991 44.6737 126.643 44.84 127.373 44.84C128.076 44.84 128.719 44.6693 129.301 44.3279C129.884 43.9865 130.348 43.5006 130.687 42.8659C131.026 42.2312 131.195 41.5002 131.195 40.6642C131.195 39.8325 131.03 39.1015 130.687 38.4668Z" fill="white"/>
<path d="M136.847 31.8048V45.8469H135.531V31.8048H136.847Z" fill="white"/>
<path d="M140.492 45.1771C139.745 44.6256 139.328 43.8771 139.241 42.9272H140.596C140.657 43.5094 140.931 43.9821 141.413 44.341C141.895 44.7044 142.547 44.8794 143.363 44.8794C144.08 44.8794 144.641 44.7087 145.049 44.3673C145.457 44.0259 145.662 43.6013 145.662 43.0935C145.662 42.739 145.549 42.4501 145.323 42.2225C145.097 41.9949 144.81 41.8154 144.467 41.6841C144.119 41.5528 143.655 41.4083 143.064 41.2551C142.299 41.0538 141.678 40.8524 141.2 40.6467C140.722 40.4453 140.318 40.1433 139.984 39.745C139.649 39.3467 139.484 38.8126 139.484 38.1429C139.484 37.6395 139.636 37.1668 139.936 36.7378C140.24 36.3089 140.666 35.9675 141.217 35.7136C141.769 35.4597 142.399 35.3328 143.103 35.3328C144.206 35.3328 145.097 35.6173 145.779 36.1776C146.456 36.7422 146.821 37.517 146.869 38.5019H145.553C145.518 37.8934 145.279 37.4032 144.849 37.0311C144.415 36.6591 143.824 36.4708 143.068 36.4708C142.403 36.4708 141.865 36.6284 141.448 36.9436C141.031 37.2587 140.826 37.6527 140.826 38.121C140.826 38.5237 140.948 38.8564 141.196 39.119C141.439 39.3773 141.743 39.5786 142.108 39.7275C142.473 39.8719 142.964 40.0339 143.576 40.209C144.315 40.4147 144.906 40.6073 145.349 40.7955C145.787 40.9837 146.165 41.2639 146.478 41.6316C146.791 41.9992 146.956 42.4851 146.969 43.0935C146.969 43.6494 146.817 44.1484 146.517 44.5818C146.213 45.0151 145.796 45.3653 145.257 45.6148C144.714 45.8687 144.098 45.9912 143.394 45.9912C142.204 46 141.239 45.7242 140.492 45.1771Z" fill="white"/>
</svg>
